<svg 
 xmlns="http://www.w3.org/2000/svg"
 xmlns:xlink="http://www.w3.org/1999/xlink"
 width="58px" height="58px">
<path fill-rule="evenodd"  fill="rgb(252, 80, 50)"
 d="M29.000,57.998 C12.984,57.998 0.001,45.015 0.001,29.000 C0.001,12.984 12.984,0.001 29.000,0.001 C45.015,0.001 57.998,12.984 57.998,29.000 C57.998,45.015 45.015,57.998 29.000,57.998 ZM41.497,26.582 L25.796,16.017 C24.902,15.416 23.750,15.357 22.799,15.862 C21.848,16.369 21.254,17.358 21.254,18.435 L21.254,39.564 C21.254,40.641 21.848,41.631 22.799,42.137 C23.229,42.366 23.699,42.479 24.168,42.479 C24.738,42.479 25.306,42.312 25.796,41.982 L41.497,31.418 C42.302,30.876 42.784,29.970 42.784,29.000 C42.784,28.030 42.302,27.123 41.497,26.582 Z"/>
</svg>